<!DOCTYPE svg PUBLIC "-//W3C//DTD SVG 20010904//EN" "http://www.w3.org/TR/2001/REC-SVG-20010904/DTD/svg10.dtd">
<svg version="1.0" xmlns="http://www.w3.org/2000/svg" width="1600px" height="543px" viewBox="0 0 16000 5430" preserveAspectRatio="xMidYMid meet">
<g id="layer1" fill="#e22424" stroke="none">
 <path d="M944 4169 c-21 -12 -46 -27 -55 -35 -8 -8 -19 -14 -22 -14 -4 0 -51 -34 -104 -75 -248 -190 -435 -416 -574 -696 -53 -107 -134 -323 -143 -383 -4 -21 -9 -43 -12 -48 -11 -17 -25 -190 -31 -368 -5 -178 3 -295 33 -465 15 -82 70 -271 94 -320 5 -11 27 -58 49 -105 22 -47 52 -106 68 -131 15 -26 43 -71 60 -101 55 -92 235 -299 339 -390 167 -144 382 -279 569 -355 104 -42 294 -96 380 -108 28 -4 61 -9 75 -12 129 -26 391 -22 563 7 165 29 192 35 318 75 436 140 827 462 1080 889 32 55 58 104 56 109 -6 20 -24 8 -65 -44 -148 -185 -328 -349 -499 -452 -113 -69 -280 -150 -353 -172 -30 -9 -64 -20 -75 -25 -45 -18 -171 -48 -238 -56 -23 -3 -58 -10 -77 -15 -19 -5 -134 -7 -255 -5 -239 4 -327 16 -520 74 -477 141 -896 496 -1112 942 -142 292 -195 539 -188 875 3 185 19 295 66 464 27 94 99 273 140 348 18 32 37 67 43 78 25 46 113 174 159 230 27 33 103 112 169 176 119 115 138 148 62 108z"/>
 <path d="M1960 4176 c-3 -3 -37 -10 -75 -16 -173 -28 -419 -130 -565 -236 -265 -191 -427 -398 -550 -699 -94 -229 -117 -594 -54 -855 75 -312 247 -588 499 -799 180 -151 347 -236 595 -305 171 -47 503 -47 692 0 291 72 518 203 729 420 133 137 231 284 297 444 13 30 27 64 32 75 10 24 43 138 62 215 10 43 13 228 13 880 l0 825 -250 0 -250 0 -3 -142 c-1 -79 -5 -143 -8 -143 -3 0 -31 19 -62 43 -179 135 -388 230 -602 274 -72 15 -489 31 -500 19z m412 -525 c96 -23 213 -68 269 -105 21 -14 42 -26 45 -26 11 0 142 -109 179 -149 118 -128 198 -283 240 -464 24 -110 20 -310 -9 -429 -84 -336 -313 -583 -639 -690 -102 -33 -102 -33 -302 -33 l-200 0 -108 38 c-360 125 -607 434 -649 810 -32 289 62 563 266 775 124 128 286 223 457 267 126 32 328 34 451 6z"/>
 </g>
<g id="layer2" fill="#ffffff" stroke="none">
 <path d="M7530 4083 c1 -1345 5 -1543 36 -1677 41 -179 124 -368 228 -521 68 -100 229 -269 321 -337 66 -49 210 -136 265 -160 19 -9 51 -23 70 -32 58 -26 190 -67 270 -83 101 -21 423 -29 515 -13 334 58 584 182 814 404 177 172 294 352 369 572 48 139 62 208 74 356 35 415 -79 775 -346 1088 -204 241 -483 412 -786 484 -149 36 -372 46 -540 26 -266 -32 -536 -147 -732 -311 l-38 -31 0 791 0 791 -260 0 -260 0 0 -1347z m1640 -403 c307 -49 587 -256 719 -533 72 -151 86 -217 86 -422 0 -213 -9 -255 -94 -436 -77 -164 -260 -346 -429 -427 -488 -235 -1065 -43 -1299 431 -81 164 -98 239 -98 432 0 182 15 255 86 412 122 270 402 486 699 538 93 16 244 18 330 5z"/>
 <path d="M10970 4083 c1 -1345 5 -1543 36 -1677 41 -179 124 -368 228 -521 68 -100 229 -269 321 -337 66 -49 210 -136 265 -160 19 -9 51 -23 70 -32 58 -26 190 -67 270 -83 101 -21 423 -29 515 -13 334 58 584 182 814 404 177 172 294 352 369 572 48 139 62 208 74 356 35 415 -79 774 -346 1088 -204 241 -483 412 -786 484 -149 36 -372 46 -540 26 -266 -32 -536 -147 -732 -311 l-38 -31 0 791 0 791 -260 0 -260 0 0 -1347z m1640 -403 c401 -64 737 -391 799 -780 23 -138 10 -358 -25 -460 -76 -217 -180 -363 -354 -492 -247 -185 -585 -236 -885 -136 -315 105 -546 359 -632 693 -25 99 -25 342 0 440 99 385 392 661 772 730 88 16 240 18 325 5z"/>
 <path d="M6595 4128 c-3 -7 -4 -645 -3 -1418 l3 -1405 250 0 250 0 0 1415 0 1415 -248 3 c-193 2 -249 0 -252 -10z"/>
 <path d="M14417 4133 c-10 -10 -8 -1390 3 -1533 10 -135 43 -290 80 -375 5 -11 18 -42 30 -70 22 -54 23 -55 63 -128 112 -201 293 -391 510 -535 26 -18 50 -32 53 -32 2 0 21 -10 42 -23 47 -30 208 -99 292 -127 124 -40 244 -61 378 -67 l132 -6 0 255 0 255 -92 7 c-330 23 -634 187 -807 437 -69 98 -108 181 -148 309 -15 49 -17 141 -20 838 -3 601 -7 784 -16 787 -23 7 -494 15 -500 8z"/>
 <path d="M4547 4123 c-4 -3 -7 -811 -7 -1795 l0 -1788 -572 -2 -573 -3 0 -255 0 -255 1405 0 1405 0 0 255 0 255 -567 3 -568 2 -2 1793 -3 1792 -256 3 c-140 1 -258 -1 -262 -5z"/>
 <path d="M6597 664 c-4 -4 -7 -155 -7 -336 l0 -328 255 0 255 0 -2 333 -3 332 -246 3 c-135 1 -248 -1 -252 -4z"/>
 </g>

</svg>