<!DOCTYPE svg PUBLIC "-//W3C//DTD SVG 20010904//EN" "http://www.w3.org/TR/2001/REC-SVG-20010904/DTD/svg10.dtd">
<svg version="1.0" xmlns="http://www.w3.org/2000/svg" width="1600px" height="525px" viewBox="0 0 16000 5250" preserveAspectRatio="xMidYMid meet">
<g id="layer1" fill="#5dc4ab" stroke="none">
 <path d="M1454 1260 c-149 -149 -188 -192 -178 -201 20 -17 61 1 229 99 l150 87 3 94 c1 52 -1 98 -5 102 -4 4 -94 -77 -199 -181z"/>
 <path d="M1746 1321 c-4 -5 -2 -12 3 -15 5 -4 12 -2 15 3 4 5 2 12 -3 15 -5 4 -12 2 -15 -3z"/>
 <path d="M1676 1281 c-4 -5 -2 -12 3 -15 5 -4 12 -2 15 3 4 5 2 12 -3 15 -5 4 -12 2 -15 -3z"/>
 </g>
<g id="layer2" fill="#337faa" stroke="none">
 <path d="M1706 1521 c-21 -21 -34 -41 -29 -44 6 -4 27 11 47 32 21 21 34 41 29 44 -6 4 -27 -11 -47 -32z"/>
 <path d="M1636 1451 c-10 -11 -13 -22 -8 -25 5 -3 17 3 26 13 10 11 13 22 8 25 -5 3 -17 -3 -26 -13z"/>
 <path d="M1580 1395 c-10 -12 -49 -15 -194 -17 l-181 -3 -3 -125 c-3 -136 4 -163 48 -184 24 -11 31 -5 193 160 93 95 164 174 159 178 -5 3 -15 -1 -22 -9z"/>
 </g>
<g id="layer3" fill="#f8c174" stroke="none">
 <path d="M3335 3130 c-89 -89 -124 -131 -114 -135 26 -10 684 -1 683 10 -1 5 -14 17 -30 26 -45 25 -87 50 -246 143 -81 47 -151 86 -155 86 -5 0 -66 -58 -138 -130z"/>
 </g>
<g id="layer4" fill="#9c498a" stroke="none">
 <path d="M1246 4511 c-3 -5 127 -140 290 -300 l296 -291 229 2 c143 2 230 7 231 13 1 9 -165 106 -841 496 -145 83 -192 102 -205 80z"/>
 <path d="M2436 3851 c-4 -5 -2 -12 3 -15 5 -4 12 -2 15 3 4 5 2 12 -3 15 -5 4 -12 2 -15 -3z"/>
 </g>
<g id="layer5" fill="#8ed0aa" stroke="none">
 <path d="M1227 4492 c-20 -22 -13 -32 23 -32 15 0 30 3 33 7 7 7 -21 43 -33 43 -4 0 -14 -8 -23 -18z"/>
 <path d="M2182 1987 l-232 -232 0 -157 c0 -100 4 -159 11 -163 5 -4 100 45 210 108 l200 115 -1 243 -1 242 32 33 c17 17 27 34 22 37 -5 3 -114 -99 -241 -226z"/>
 <path d="M2386 1691 c-4 -5 -2 -12 3 -15 5 -4 12 -2 15 3 4 5 2 12 -3 15 -5 4 -12 2 -15 -3z"/>
 </g>
<g id="layer6" fill="#cae29c" stroke="none">
 <path d="M2986 2773 c-11 -11 -7 -741 4 -748 6 -3 22 2 38 13 15 10 34 22 42 25 8 4 22 11 30 17 8 5 87 51 175 101 88 51 171 98 184 106 24 15 23 16 -145 185 -201 202 -319 310 -328 301z"/>
 </g>
<g id="layer7" fill="#a5d8a1" stroke="none">
 <path d="M2522 2318 l-172 -170 0 -239 c0 -136 4 -240 9 -244 5 -3 31 7 58 21 135 75 261 150 281 168 13 12 25 20 28 19 2 -2 3 0 2 5 -2 4 -6 6 -10 4 -5 -1 -8 133 -8 297 0 165 -4 302 -8 305 -5 3 -86 -72 -180 -166z"/>
 <path d="M2906 1991 c-4 -5 -2 -12 3 -15 5 -4 12 -2 15 3 4 5 2 12 -3 15 -5 4 -12 2 -15 -3z"/>
 <path d="M2856 1961 c-4 -5 -2 -12 3 -15 5 -4 12 -2 15 3 4 5 2 12 -3 15 -5 4 -12 2 -15 -3z"/>
 </g>
<g id="layer8" fill="#b5dc9f" stroke="none">
 <path d="M2842 2637 l-152 -152 0 -311 c0 -171 3 -313 6 -317 6 -6 65 24 144 73 25 16 70 42 100 58 l55 31 3 367 2 368 34 -33 c19 -18 36 -29 39 -24 4 6 -13 28 -36 51 l-42 42 -153 -153z"/>
 <path d="M3376 2261 c-4 -5 -2 -12 3 -15 5 -4 12 -2 15 3 4 5 2 12 -3 15 -5 4 -12 2 -15 -3z"/>
 <path d="M3096 2101 c-4 -5 -2 -12 3 -15 5 -4 12 -2 15 3 4 5 2 12 -3 15 -5 4 -12 2 -15 -3z"/>
 <path d="M3046 2071 c-4 -5 -2 -12 3 -15 5 -4 12 -2 15 3 4 5 2 12 -3 15 -5 4 -12 2 -15 -3z"/>
 </g>
<g id="layer9" fill="#f79878" stroke="none">
 <path d="M3076 2702 c-8 -13 390 -406 406 -400 36 15 670 386 671 394 2 11 -1070 17 -1077 6z"/>
 </g>
<g id="layer10" fill="#d34457" stroke="none">
 <path d="M2525 3250 c-3 -6 100 -116 231 -246 l236 -236 239 238 c131 131 236 241 233 246 -8 12 -931 10 -939 -2z"/>
 </g>
<g id="layer11" fill="#cb455f" stroke="none">
 <path d="M2256 3512 c-3 -5 78 -91 178 -191 101 -101 186 -179 189 -174 4 5 -12 27 -34 49 l-40 39 463 5 c301 3 462 8 461 15 -2 6 -102 67 -223 138 l-221 127 -384 0 c-211 0 -386 -4 -389 -8z"/>
 </g>
<g id="layer12" fill="#b54774" stroke="none">
 <path d="M1836 3932 c-3 -5 91 -104 207 -220 l212 -212 385 2 c250 2 384 7 383 13 -2 8 -557 335 -568 335 -1 0 -36 20 -77 45 l-75 45 -231 0 c-127 0 -233 -4 -236 -8z"/>
 </g>
<g id="layer13" fill="#3888b2" stroke="none">
 <path d="M1204 1857 c-2 -7 -3 -120 -2 -252 l3 -240 182 -3 181 -2 251 246 c138 136 248 251 245 255 -3 5 -196 9 -430 9 -334 0 -426 -3 -430 -13z"/>
 </g>
<g id="layer14" fill="#faaf77" stroke="none">
 <path d="M3446 3241 c-4 -5 -2 -12 3 -15 5 -4 12 -2 15 3 4 5 2 12 -3 15 -5 4 -12 2 -15 -3z"/>
 <path d="M3786 3071 c-4 -5 -2 -12 3 -15 5 -4 12 -2 15 3 4 5 2 12 -3 15 -5 4 -12 2 -15 -3z"/>
 <path d="M3859 3033 c-1 -4 -1 -11 0 -15 0 -5 -144 -8 -322 -8 l-322 0 -115 -115 -114 -115 44 -45 44 -45 547 0 547 0 31 29 c42 40 42 79 -2 117 -47 42 -280 174 -306 174 -12 0 -20 4 -16 9 3 5 1 12 -5 16 -5 3 -11 3 -11 -2z"/>
 </g>
<g id="layer15" fill="#79c6b1" stroke="none">
 <path d="M1215 4487 c-13 -21 -15 -75 -13 -413 l3 -389 424 -3 c242 -1 429 2 434 7 5 5 -152 169 -385 400 -289 288 -399 391 -416 391 -13 0 -21 4 -17 9 13 22 -15 20 -30 -2z"/>
 <path d="M2436 2241 c-15 -16 -23 -31 -18 -35 5 -3 21 8 36 23 15 16 23 31 18 35 -5 3 -21 -8 -36 -23z"/>
 <path d="M1797 1602 l-157 -157 0 -92 c0 -51 4 -94 9 -98 6 -3 27 4 48 16 21 12 61 34 88 50 28 15 81 45 118 67 l69 40 -2 159 c0 87 -4 161 -8 165 -4 4 -78 -63 -165 -150z"/>
 </g>
<g id="layer16" fill="#4f98b5" stroke="none">
 <path d="M2776 2581 c-4 -5 -2 -12 3 -15 5 -4 12 -2 15 3 4 5 2 12 -3 15 -5 4 -12 2 -15 -3z"/>
 <path d="M1205 2477 c-3 -7 -4 -149 -3 -317 l3 -305 428 -3 428 -2 319 312 c175 172 316 316 314 320 -3 5 -338 8 -745 8 -586 0 -741 -3 -744 -13z"/>
 </g>
<g id="layer17" fill="#6cb2b9" stroke="none">
 <path d="M1837 3923 c-3 -5 41 -56 99 -114 l104 -104 -417 -5 -418 -5 0 -340 0 -340 764 -3 c421 -1 768 1 773 6 4 4 -197 212 -446 461 -249 249 -456 449 -459 444z"/>
 </g>
<g id="layer18" fill="#5da4b7" stroke="none">
 <path d="M1205 3017 c-3 -7 -4 -131 -3 -277 l3 -265 745 -3 745 -2 155 155 155 156 -130 124 -130 124 -768 1 c-610 0 -769 -3 -772 -13z"/>
 </g>
<g id="layer19" fill="#f9f9f9" stroke="none">
 <path d="M9033 4070 c-183 -48 -283 -154 -283 -300 0 -151 120 -274 320 -329 39 -11 99 -23 133 -26 34 -3 72 -8 84 -11 l22 -4 -26 -46 c-22 -39 -25 -54 -21 -102 l6 -57 -67 -2 c-137 -4 -252 -78 -313 -200 -27 -55 -32 -77 -32 -137 -1 -212 158 -375 405 -415 81 -14 556 -14 564 -2 3 6 -26 28 -64 50 -57 34 -79 41 -121 41 l-52 0 40 45 c69 79 87 126 87 235 0 124 -21 166 -138 276 -119 111 -125 151 -35 226 102 84 190 174 216 218 24 41 27 55 27 145 0 92 -2 104 -29 152 -67 120 -212 218 -370 248 -107 21 -263 19 -353 -5z m462 -119 c63 -28 93 -55 116 -106 53 -115 4 -214 -166 -331 l-55 -37 -104 11 c-224 25 -328 101 -328 242 0 118 77 199 226 237 80 20 249 12 311 -16z m-75 -864 c84 -42 113 -156 75 -301 -46 -177 -156 -281 -276 -261 -83 14 -135 71 -151 166 -20 117 29 278 110 362 66 67 150 79 242 34z"/>
 <path d="M11965 3908 c-3 -7 -4 -346 -3 -753 l3 -740 70 0 70 0 9 67 8 67 47 -46 c169 -169 487 -137 620 63 66 101 92 205 92 376 0 189 -39 310 -131 411 -86 94 -191 134 -334 124 -98 -6 -153 -26 -228 -83 l-58 -44 -2 283 -3 282 -78 3 c-56 2 -79 -1 -82 -10z m576 -605 c65 -34 108 -87 135 -169 27 -83 27 -314 1 -393 -44 -131 -123 -191 -252 -191 -184 0 -263 76 -286 277 -22 195 21 396 98 451 82 58 216 69 304 25z"/>
 <path d="M14363 3910 c-21 -8 -23 -16 -23 -73 0 -35 2 -66 5 -68 2 -3 30 -2 62 2 78 9 150 -5 193 -39 37 -29 92 -129 124 -224 l18 -53 -206 -515 c-113 -283 -202 -518 -197 -523 4 -4 45 -7 91 -5 l83 3 114 295 c62 162 133 353 157 423 24 71 46 125 49 120 2 -4 12 -33 22 -63 18 -55 188 -537 241 -680 15 -41 32 -81 37 -87 12 -16 163 -18 172 -3 8 14 -436 1193 -483 1285 -80 153 -181 215 -345 214 -51 0 -102 -4 -114 -9z"/>
 <path d="M5480 3505 c-170 -34 -276 -91 -395 -210 -100 -100 -145 -169 -186 -283 -53 -152 -63 -341 -24 -487 77 -286 323 -518 622 -585 262 -60 602 -7 808 124 l57 37 -92 87 c-89 84 -153 123 -173 103 -5 -5 1 -25 17 -49 l25 -41 -57 -46 c-196 -157 -451 -188 -667 -81 -135 67 -227 176 -282 333 -26 73 -28 89 -28 238 0 154 2 163 33 255 88 254 262 422 508 491 114 33 299 33 402 1 l72 -23 0 -165 0 -166 -154 7 c-101 5 -156 4 -160 -3 -3 -6 32 -31 80 -56 l86 -46 227 0 c125 0 231 3 235 7 4 4 -10 22 -31 39 l-38 32 -5 198 -5 199 -135 32 c-286 69 -575 91 -740 58z"/>
 <path d="M13628 3467 c-161 -46 -252 -215 -204 -380 49 -167 200 -243 510 -254 l158 -6 -6 -76 c-14 -154 -66 -204 -215 -202 -79 1 -139 14 -229 50 -29 11 -55 21 -58 21 -5 0 -36 -69 -48 -107 -6 -19 0 -26 44 -48 83 -42 190 -65 305 -65 168 0 268 44 325 142 45 80 51 144 48 548 l-3 365 -63 3 c-70 3 -74 0 -87 -92 l-7 -47 -54 51 c-81 77 -146 103 -269 107 -62 2 -118 -2 -147 -10z m316 -171 c94 -46 136 -128 136 -265 l0 -74 -127 6 c-264 14 -353 64 -353 199 0 126 56 172 201 166 69 -3 97 -9 143 -32z"/>
 <path d="M13075 3448 c-3 -7 -4 -339 -3 -738 l3 -725 85 0 85 0 0 735 0 735 -83 3 c-60 2 -84 -1 -87 -10z"/>
 <path d="M6925 3440 c-281 -57 -469 -335 -411 -608 41 -193 199 -356 401 -413 31 -9 92 -14 160 -13 168 2 269 46 380 166 94 101 135 208 135 351 0 184 -112 370 -277 460 -104 56 -270 80 -388 57z m278 -102 c57 -25 110 -83 132 -147 28 -76 30 -211 7 -325 -38 -181 -120 -311 -224 -356 -66 -28 -171 -25 -234 8 -57 29 -118 102 -135 159 -20 68 -17 241 6 328 75 293 245 419 448 333z"/>
 <path d="M8068 3434 c-278 -67 -454 -356 -383 -629 73 -278 383 -458 673 -390 302 71 475 393 367 682 -49 128 -151 241 -270 298 -113 53 -266 69 -387 39z m297 -93 c121 -52 179 -199 155 -392 -26 -216 -110 -378 -225 -434 -47 -24 -64 -27 -127 -23 -114 5 -188 50 -236 143 -37 71 -43 232 -13 357 25 106 69 207 116 264 84 103 212 135 330 85z"/>
 <path d="M10679 3432 c-295 -98 -440 -487 -288 -773 90 -169 320 -283 503 -252 36 6 89 22 118 35 88 41 181 151 190 226 3 21 -17 31 -252 127 -166 68 -269 105 -295 105 -22 1 -57 4 -77 8 l-38 7 29 82 c31 90 99 194 155 237 125 95 288 111 445 44 24 -10 48 -15 52 -11 14 14 -130 131 -190 155 -79 31 -271 36 -352 10z m149 -677 c74 -32 136 -64 139 -72 22 -58 -55 -159 -141 -183 -96 -27 -213 25 -256 114 -28 60 -45 159 -36 218 l7 47 77 -34 c42 -18 137 -59 210 -90z"/>
 <path d="M9895 3401 c-3 -5 6 -26 20 -47 l25 -37 0 -678 0 -679 -69 0 c-39 0 -73 -4 -76 -10 -3 -5 26 -25 64 -45 l71 -35 154 0 c85 0 157 4 161 9 3 5 -8 17 -24 27 -16 10 -34 28 -40 41 -17 37 -15 1357 2 1371 7 6 46 14 86 19 42 4 76 13 78 20 3 7 -14 21 -36 32 -36 19 -58 21 -225 21 -103 0 -187 -4 -191 -9z"/>
 <path d="M11307 2574 c-4 -4 -7 -35 -7 -68 0 -54 -3 -62 -22 -71 -42 -18 -14 -30 72 -30 l85 0 15 43 c8 23 17 42 20 42 3 0 12 -19 20 -42 11 -31 20 -43 35 -43 18 0 20 7 20 85 0 69 -3 85 -15 85 -10 0 -16 -12 -19 -35 l-3 -35 -13 35 c-6 19 -18 35 -25 35 -7 0 -19 -16 -25 -35 l-13 -35 -3 35 c-3 23 -9 35 -19 35 -12 0 -16 -16 -18 -76 l-3 -77 -24 12 c-21 10 -25 19 -27 75 -3 59 -14 82 -31 65z"/>
 <path d="M5870 1512 l-35 -7 -3 -214 c-1 -126 2 -219 7 -224 15 -15 200 -14 243 1 71 25 138 123 138 202 0 79 -56 175 -125 216 -34 19 -61 26 -117 29 -40 2 -89 1 -108 -3z m165 -96 c43 -18 68 -66 68 -131 0 -93 -50 -145 -139 -145 -29 0 -35 3 -30 16 3 9 6 74 6 145 l0 129 30 0 c17 0 46 -6 65 -14z"/>
 <path d="M6804 1488 c-115 -77 -138 -236 -51 -350 47 -61 99 -88 170 -88 75 0 112 17 163 72 78 85 82 216 9 311 -45 59 -104 87 -182 87 -52 0 -68 -5 -109 -32z m174 -74 c34 -24 52 -68 52 -129 0 -115 -73 -175 -159 -131 -47 25 -71 110 -52 183 21 77 102 117 159 77z"/>
 <path d="M7477 1511 l-39 -6 1 -220 0 -220 63 -8 c201 -25 318 56 318 220 0 71 -26 128 -84 181 -60 55 -142 72 -259 53z m182 -103 c50 -31 67 -146 31 -206 -22 -36 -72 -62 -120 -62 l-30 0 0 108 c0 59 3 124 7 146 l6 38 43 -6 c24 -3 52 -11 63 -18z"/>
 <path d="M9605 1506 c-17 -7 -50 -34 -72 -60 -65 -74 -77 -177 -32 -266 22 -44 85 -105 122 -119 46 -18 133 -13 176 9 166 84 159 343 -11 431 -44 22 -137 25 -183 5z m150 -92 c28 -18 55 -81 55 -129 0 -53 -28 -114 -61 -130 -85 -44 -159 14 -159 125 0 93 41 150 108 150 18 0 43 -7 57 -16z"/>
 <path d="M4857 1503 c-5 -7 131 -383 152 -423 6 -11 26 -15 76 -15 l68 0 73 215 c40 118 69 219 65 223 -5 5 -32 7 -62 5 l-53 -3 -16 -55 -16 -55 -71 -3 -72 -3 -11 43 c-17 67 -22 73 -78 76 -27 2 -52 -1 -55 -5z m243 -257 c-10 -29 -20 -62 -22 -72 -2 -12 -12 6 -26 45 -12 36 -22 69 -22 73 0 4 20 8 44 8 l45 0 -19 -54z"/>
 <path d="M5357 1503 c-2 -4 -4 -105 -3 -223 l1 -215 54 0 53 0 82 128 81 128 5 -128 5 -128 45 0 45 0 0 220 0 220 -45 0 -44 0 -93 -137 -92 -138 -3 138 -3 137 -42 3 c-22 2 -43 -1 -46 -5z"/>
 <path d="M6300 1506 c-3 -2 -5 -103 -4 -223 l1 -218 64 -8 c99 -12 184 0 220 30 17 15 35 37 40 51 13 35 -6 96 -40 124 l-28 24 20 25 c30 36 89 169 83 185 -7 18 -105 20 -111 2 -49 -143 -60 -158 -112 -158 l-35 0 3 83 4 82 -50 3 c-28 2 -53 1 -55 -2z m177 -257 c32 -12 43 -26 43 -56 0 -34 -27 -53 -76 -53 l-44 0 0 60 c0 57 1 60 24 60 14 0 37 -5 53 -11z"/>
 <path d="M7230 1506 c-3 -2 -5 -103 -4 -223 l1 -218 52 0 53 0 1 220 0 220 -49 3 c-28 2 -52 1 -54 -2z"/>
 <path d="M8034 1497 c-3 -8 30 -109 73 -223 l79 -209 68 0 68 0 74 214 c43 123 71 218 66 223 -5 5 -33 8 -63 6 l-53 -3 -15 -57 -15 -58 -73 0 -72 0 -10 38 c-5 20 -11 46 -13 57 -3 17 -12 21 -56 23 -38 2 -54 -1 -58 -11z m234 -264 c-11 -38 -21 -69 -23 -71 -3 -3 -45 117 -45 130 0 4 20 8 44 8 l44 0 -20 -67z"/>
 <path d="M8530 1506 c-3 -2 -5 -103 -5 -223 l1 -218 90 -9 c110 -10 164 2 211 49 27 27 33 40 33 78 0 84 -70 147 -181 162 l-51 7 3 77 4 76 -50 3 c-28 2 -53 1 -55 -2z m176 -246 c42 0 62 -90 25 -110 -11 -5 -38 -10 -60 -10 l-41 0 0 66 0 67 31 -7 c17 -3 37 -6 45 -6z"/>
 <path d="M8930 1506 c0 -4 -1 -104 -1 -223 l0 -218 82 -9 c110 -11 174 3 219 49 31 32 32 37 28 89 -3 41 -11 63 -29 82 -33 35 -85 61 -141 69 l-47 7 -3 77 -3 76 -52 3 c-29 2 -53 1 -53 -2z m193 -252 c16 -5 37 -41 37 -65 0 -25 -42 -49 -85 -49 l-45 0 0 66 0 66 38 -6 c20 -4 45 -9 55 -12z"/>
 <path d="M10005 1498 c-3 -8 -4 -108 -3 -223 l3 -210 51 -3 52 -3 27 46 c15 26 54 88 87 138 l60 92 -4 -135 -3 -135 48 0 48 0 1 220 0 220 -44 3 -45 3 -98 -148 -97 -148 3 145 4 145 -43 3 c-28 2 -44 -1 -47 -10z"/>
 </g>
<g id="layer20" fill="#000000" stroke="none">
 <path d="M490 5206 c-89 -32 -135 -56 -208 -111 -130 -98 -243 -273 -263 -407 -12 -83 -12 -4063 0 -4146 26 -177 183 -376 375 -473 146 -75 -556 -69 7606 -69 8162 0 7460 -6 7606 69 192 97 349 296 375 473 12 84 12 4063 -1 4147 -14 100 -85 233 -173 324 -83 85 -154 135 -258 180 l-74 32 -7460 2 -7460 2 -65 -23z m895 -757 c50 -29 306 -176 570 -329 1009 -583 1660 -958 1920 -1108 321 -184 335 -194 335 -230 0 -15 -4 -32 -8 -39 -4 -6 -205 -125 -447 -265 -242 -140 -883 -510 -1424 -823 -541 -312 -999 -572 -1018 -578 -28 -9 -38 -7 -61 10 l-27 20 -3 1681 c-2 1518 -1 1682 14 1696 25 26 55 19 149 -35z m8001 -394 c155 -30 288 -116 350 -227 27 -49 29 -61 29 -153 0 -78 -4 -107 -18 -134 -27 -49 -92 -116 -177 -183 -146 -116 -147 -155 -6 -282 47 -42 87 -88 104 -120 24 -45 27 -62 27 -146 0 -111 -18 -158 -91 -239 -24 -27 -41 -51 -37 -55 3 -3 33 -6 65 -6 47 0 69 -6 111 -30 l52 -30 -235 0 c-129 0 -264 5 -299 11 -241 39 -382 182 -385 389 -1 67 3 84 32 143 59 118 161 178 311 182 60 1 75 4 72 16 -9 35 -13 100 -7 122 3 13 17 40 30 60 14 20 21 39 16 42 -5 3 -49 10 -97 16 -299 33 -463 153 -463 339 0 186 163 298 437 299 56 1 136 -6 179 -14z m2724 -446 c-1 -160 1 -293 4 -296 3 -3 25 15 50 39 73 73 164 107 286 108 265 0 411 -184 411 -518 0 -171 -26 -276 -91 -375 -122 -183 -442 -207 -599 -44 -54 56 -66 50 -76 -33 l-7 -60 -54 0 -54 0 0 735 0 735 65 0 66 0 -1 -291z m2515 270 c70 -26 131 -86 177 -176 20 -37 135 -331 256 -653 121 -322 224 -593 227 -602 6 -16 0 -18 -67 -18 l-75 0 -10 33 c-6 17 -50 140 -98 272 -48 132 -111 312 -140 399 -54 158 -70 193 -79 165 -54 -178 -182 -529 -303 -830 l-15 -39 -73 0 -73 0 205 512 c147 369 203 518 198 535 -16 67 -88 210 -121 244 -57 58 -95 72 -191 71 l-83 -1 0 49 c0 29 5 50 13 53 6 3 53 6 104 6 70 1 105 -4 148 -20z m-8680 -398 c72 -11 190 -34 263 -51 l132 -32 0 -184 0 -183 31 -36 31 -35 -216 0 -216 0 -62 35 -63 35 145 -3 145 -2 3 169 c2 116 -1 173 -9 182 -6 8 -44 24 -83 37 -101 31 -287 31 -400 -2 -132 -37 -229 -94 -327 -191 -100 -99 -154 -185 -201 -320 -31 -92 -33 -101 -33 -255 0 -149 2 -165 28 -238 56 -158 164 -285 302 -353 222 -109 477 -75 677 91 l68 55 -25 39 -24 39 30 -8 c17 -5 68 -44 113 -87 l82 -78 -46 -29 c-198 -127 -561 -177 -813 -111 -243 63 -426 208 -526 418 -51 107 -70 180 -78 299 -7 115 8 220 46 330 40 111 86 183 176 273 108 108 220 167 385 200 99 20 314 18 465 -4z m7988 -54 c31 -14 81 -49 111 -77 59 -56 68 -54 80 15 13 75 13 75 67 75 l49 0 0 -363 c0 -218 -4 -387 -11 -423 -30 -167 -129 -234 -344 -234 -110 0 -222 23 -294 59 -37 19 -40 23 -31 46 6 14 14 36 20 50 l9 25 53 -21 c90 -36 150 -49 229 -50 151 -2 214 54 232 205 8 64 8 88 -1 99 -9 10 -51 15 -169 20 -316 12 -456 84 -494 254 -25 111 21 246 102 300 62 41 121 53 234 50 83 -3 111 -8 158 -30z m-703 -707 l0 -720 -70 0 -70 0 0 720 0 720 70 0 70 0 0 -720z m-6046 690 c183 -47 301 -156 361 -333 87 -260 -44 -535 -301 -628 -73 -27 -250 -32 -329 -10 -353 100 -502 483 -303 778 116 174 346 251 572 193z m1156 4 c175 -41 302 -152 365 -318 88 -233 -12 -508 -223 -615 -310 -156 -693 5 -777 326 -45 174 18 386 149 499 122 106 315 149 486 108z m2692 -13 c52 -20 170 -112 123 -96 -172 60 -319 40 -442 -61 -86 -70 -173 -224 -188 -331 -22 -159 -11 -248 41 -326 56 -85 170 -132 259 -107 111 31 204 172 147 223 -10 9 -106 55 -212 101 l-194 85 64 -6 c51 -4 117 -27 312 -105 l246 -100 -16 -46 c-23 -68 -111 -154 -187 -182 -210 -77 -472 19 -573 208 -151 282 -16 660 267 754 81 26 273 21 353 -11z m-733 -25 c22 -12 20 -14 -40 -20 -44 -5 -71 -14 -86 -28 l-23 -21 0 -669 c0 -713 0 -709 47 -737 13 -7 -23 -10 -124 -11 -128 0 -147 2 -189 23 l-47 22 59 5 59 5 3 686 2 686 -25 37 -24 36 182 0 c131 -1 189 -4 206 -14z m-4209 -1907 c127 -72 145 -276 30 -360 -36 -27 -124 -41 -202 -33 l-68 6 0 203 0 204 28 4 c62 11 171 -1 212 -24z m926 11 c147 -72 146 -334 -3 -396 -51 -22 -141 -17 -188 9 -130 74 -140 300 -16 378 57 37 142 40 207 9z m624 9 c97 -21 160 -105 160 -215 0 -148 -100 -219 -280 -198 l-59 6 -3 204 -3 203 30 4 c61 8 105 7 155 -4z m2148 -8 c48 -24 66 -45 93 -106 17 -39 21 -61 17 -117 -9 -120 -78 -188 -192 -188 -66 0 -102 12 -139 48 -110 104 -89 313 37 368 46 20 140 17 184 -5z m-4818 -48 l15 -58 85 0 85 0 19 58 c18 56 19 57 57 57 22 0 39 -5 39 -11 0 -7 -30 -99 -66 -205 l-67 -194 -58 0 c-41 0 -59 4 -59 13 0 7 -31 95 -70 196 -38 100 -70 187 -70 192 0 5 17 9 38 9 38 0 38 0 52 -57z m459 -102 c-2 -88 -1 -162 3 -166 4 -4 16 13 28 37 12 23 58 98 103 166 77 114 84 122 114 122 l33 0 0 -205 0 -205 -31 0 -31 0 3 153 c2 83 0 154 -4 157 -4 3 -18 -16 -30 -41 -12 -25 -53 -96 -92 -157 l-70 -111 -40 -1 -41 0 0 205 -1 205 30 0 29 0 -3 -159z m956 77 l0 -83 42 -3 c55 -4 82 22 113 106 22 61 23 62 61 62 22 0 39 -3 39 -6 0 -21 -72 -155 -94 -176 l-28 -25 36 -21 c25 -15 38 -31 46 -60 26 -99 -50 -143 -217 -127 l-68 7 0 204 0 204 35 0 35 0 0 -82z m930 -123 l0 -205 -35 0 -35 0 0 205 0 205 35 0 35 0 0 -205z m825 148 l15 -58 81 -3 c92 -3 94 -1 114 71 13 47 13 47 56 47 l43 0 -69 -201 c-39 -111 -70 -203 -70 -206 0 -2 -25 -3 -56 -1 l-56 3 -68 180 c-93 248 -89 225 -43 225 l39 0 14 -57z m475 -20 l0 -77 66 -12 c118 -22 159 -59 159 -144 0 -81 -74 -117 -215 -105 l-80 6 0 205 0 204 35 0 36 0 -1 -77z m407 0 l3 -77 61 -11 c111 -20 154 -60 154 -146 0 -34 -5 -51 -22 -67 -35 -31 -106 -45 -193 -37 l-75 7 0 204 0 204 35 0 34 0 3 -77z m1052 -76 c-8 -172 0 -197 37 -125 12 24 57 96 101 161 73 109 81 117 111 117 l32 0 0 -205 0 -205 -31 0 -30 0 4 141 c5 154 -4 186 -34 128 -9 -19 -51 -87 -92 -151 -74 -117 -75 -118 -113 -118 l-39 0 0 205 0 205 30 0 30 0 -6 -153z"/>
 <path d="M9184 3987 c-153 -40 -246 -136 -246 -258 0 -146 121 -236 348 -261 l104 -11 57 39 c87 60 159 130 182 177 54 112 -3 240 -134 298 -62 28 -231 36 -311 16z"/>
 <path d="M9260 3125 c-56 -17 -128 -89 -165 -162 -26 -53 -54 -164 -55 -215 -1 -123 73 -223 181 -243 151 -28 310 179 309 405 -1 114 -51 184 -156 216 -56 17 -56 17 -114 -1z"/>
 <path d="M12307 3332 c-123 -44 -176 -138 -192 -342 -9 -115 9 -243 45 -316 50 -102 127 -144 265 -144 93 0 163 34 216 104 52 69 71 132 76 264 11 226 -49 367 -182 428 -61 29 -157 31 -228 6z"/>
 <path d="M13672 3329 c-59 -29 -85 -70 -90 -140 -6 -75 1 -101 40 -144 62 -71 153 -97 348 -99 l125 -1 0 100 c0 93 -2 104 -31 155 -56 100 -151 150 -283 150 -47 0 -78 -6 -109 -21z"/>
 <path d="M7018 3376 c-164 -45 -288 -259 -305 -524 -14 -221 95 -368 282 -380 93 -6 155 20 225 94 132 139 198 448 135 626 -47 134 -206 221 -337 184z"/>
 <path d="M8190 3376 c-138 -37 -241 -173 -291 -383 -30 -127 -24 -287 13 -358 53 -102 140 -158 256 -163 63 -4 80 -1 127 22 126 62 218 233 245 455 19 153 -12 273 -90 351 -71 71 -172 101 -260 76z"/>
 <path d="M5933 1439 c-7 -9 -12 -72 -14 -164 l-3 -150 57 0 c41 0 64 6 84 21 88 66 89 211 2 277 -34 25 -110 34 -126 16z"/>
 <path d="M6850 1414 c-26 -23 -44 -51 -51 -77 -39 -144 92 -274 191 -191 44 37 60 75 60 139 0 64 -16 102 -60 139 -46 38 -90 35 -140 -10z"/>
 <path d="M7540 1435 c-12 -14 -15 -51 -15 -164 l0 -146 52 0 c59 1 94 21 131 75 43 63 20 183 -42 224 -41 26 -109 32 -126 11z"/>
 <path d="M9629 1423 c-41 -34 -59 -79 -59 -143 0 -60 17 -97 60 -134 110 -92 247 74 181 220 -38 83 -120 109 -182 57z"/>
 <path d="M5007 1313 c-7 -12 57 -188 67 -188 11 0 67 175 60 187 -6 10 -121 11 -127 1z"/>
 <path d="M6384 1266 c-3 -7 -4 -42 -2 -77 l3 -64 52 -3 c45 -3 56 1 78 22 42 42 29 97 -30 122 -43 18 -94 18 -101 0z"/>
 <path d="M8177 1313 c-7 -12 57 -188 68 -188 11 0 67 174 59 186 -6 11 -121 12 -127 2z"/>
 <path d="M8614 1277 c-3 -8 -4 -45 -2 -83 l3 -69 51 -3 c65 -4 104 23 104 73 0 44 -26 74 -75 85 -55 13 -75 12 -81 -3z"/>
 <path d="M9021 1276 c-7 -9 -11 -39 -9 -83 l3 -68 48 -3 c79 -5 130 43 108 100 -13 34 -44 54 -97 63 -30 4 -44 2 -53 -9z"/>
 </g>

</svg>