<svg xmlns="http://www.w3.org/2000/svg" xmlns:xlink="http://www.w3.org/1999/xlink" version="1.1" x="0px" y="0px" viewBox="0 0 100 125" style="enable-background:new 0 0 100 100;" xml:space="preserve"><path d="M88.271,48.613c0.02-0.078,0.02-0.164-0.006-0.25l-0.007-0.031c-0.5-10.051-4.819-19.36-12.165-26.222  c-0.9-0.934-2.242-2.038-3.775-3.108c-9.934-7.18-22.825-9.193-34.487-5.382c-0.835,0.216-1.985,0.653-3.323,1.261  c-2.154,0.935-4.223,2.069-6.144,3.373c-0.356,0.236-0.689,0.47-0.989,0.693c-0.006,0.003-0.013,0.008-0.021,0.015  c-2.251,1.636-4.329,3.526-6.175,5.618C7.25,40.374,8.849,64.626,24.74,78.641c2.966,2.614,6.289,4.745,9.881,6.338  c0.515,0.246,0.943,0.393,1.307,0.551c15.029,6.006,32.257,1.945,42.895-10.115C85.34,68.021,88.693,58.51,88.271,48.613z   M86.9,47.023c-0.034-0.091-0.067-0.184-0.103-0.275c-0.782-2.107-2.218-5.99-5.728-9.102c-0.518-6.54-2.848-10.364-4.924-13.725  C82.361,30.138,86.146,38.271,86.9,47.023z M61.307,18.125c0.031-0.007,0.063-0.017,0.09-0.026c3.375,0.59,8.602,2.506,13.097,5.568  c0.013,0.047,0.034,0.094,0.06,0.137c0.125,0.202,0.436,0.703,0.436,0.703c2.004,3.244,4.273,6.918,4.785,13.16  c-2.039,1.502-3.492,3.103-4.902,4.651c-0.84,0.923-1.704,1.873-2.689,2.802c-3.302-3.073-9.158-5.701-15.482-6.93  c-0.62-2.736-1.862-7.81-4.91-13.43c0.08-0.092,0.156-0.181,0.236-0.269c4.898-5.558,6.623-5.874,8.621-6.239  C60.861,18.213,61.081,18.172,61.307,18.125z M43.62,49.568l12.675-10.135c6.357,1.21,12.209,3.857,15.293,6.916  c0.754,2.336,0.948,7.369,1.094,11.072c0.07,1.896,0.139,3.554,0.256,4.552c-4.978,4.539-11.584,9.197-13.738,9.682l-13.866-5.426  C44.297,60.421,43.993,56.443,43.62,49.568z M44.035,66.332l-10.039,7.061c-0.094-0.039-0.199-0.047-0.3-0.025  c-1.872,0.389-9.076-4.893-12.586-7.96c-0.04-0.033-0.084-0.062-0.129-0.081c-0.149-1.004-0.468-2.28-0.828-3.729  c-0.95-3.82-2.127-8.554-1.07-11.496c0.021-0.017,0.038-0.036,0.058-0.056c0.012-0.015,0.025-0.031,0.036-0.048  c0.686-0.987,1.348-1.841,2.027-2.607c2.142-2.432,4.57-4.16,8.346-5.93c0.248,0.18,0.504,0.364,0.769,0.558  c3.515,2.566,8.297,6.059,12.011,7.699C42.705,56.557,43.008,60.538,44.035,66.332z M30.64,19.179  c0.142-0.16,0.295-0.299,0.473-0.458l0.099-0.089c0.375-0.206,0.861-0.492,1.423-0.82c1.323-0.774,3.134-1.834,5.121-2.834  c5.363-1.831,11.161-2.411,16.807-1.685c0,0.188,0.105,0.366,0.277,0.452c0.346,0.179,0.695,0.347,1.044,0.516  c1.485,0.717,2.901,1.402,4.199,2.777c-2.028,0.384-4.103,1.004-9.044,6.609c-0.104,0.119-0.21,0.238-0.316,0.358  c-4.979-0.495-10.703-0.768-15.851,0.752c-1.904-2.269-3.504-3.348-4.921-4.303l-0.038-0.027  C30.223,19.704,30.452,19.392,30.64,19.179z M14.558,42.993c-0.047-0.163-0.173-0.291-0.334-0.342  c-0.163-0.051-0.34-0.016-0.472,0.091c-0.052,0.043-0.104,0.088-0.153,0.135c1.192-6.346,4.027-12.242,8.266-17.154  c0.245-0.201,0.555-0.472,0.909-0.78c1.466-1.276,4.883-4.257,5.968-3.741c0,0,0.127,0.086,0.132,0.089  c0.016,0.014,0.034,0.025,0.055,0.037l0.299,0.202c1.321,0.894,2.816,1.901,4.575,3.971c-1.582,3.36-4.896,11.658-4.88,14.823  c-3.904,1.838-6.438,3.65-8.688,6.203c-0.598,0.678-1.184,1.417-1.779,2.246c-0.07-0.065-0.143-0.135-0.216-0.202  C17.112,47.518,15.411,45.925,14.558,42.993z M25.578,77.691c-3.243-2.859-5.934-6.211-8.004-9.971  c1.4-0.393,2.073-0.654,2.859-1.187c1.292,1.093,9.293,7.755,12.834,8.118c1.81,2.986,3.889,5.91,6.19,8.703  c-1.158,0.713-2.111,0.959-3.339,0.886C32.267,82.666,28.719,80.464,25.578,77.691z M38.686,85.184  c0.597-0.219,1.202-0.543,1.866-0.992c5.582,0.824,11.808,0.308,16.189-0.308c0.063,0.042,0.134,0.068,0.213,0.079  c1.051,0.139,4.177,0.46,7.942,0.031C56.63,87.564,47.329,88.001,38.686,85.184z M76.736,75.523  c-0.075,0.111-0.102,0.24-0.084,0.367c-2.311,2.381-4.92,4.426-7.762,6.086c-0.072-0.016-0.148-0.014-0.225,0.006  c-4.546,1.195-8.9,0.971-10.848,0.774c0.877-2.183,1.479-5.43,1.828-9.88c2.556-0.714,9.029-5.257,14.203-9.98  c1.289,0.213,2.168,0.414,2.881,0.58c1.737,0.401,2.533,0.586,5.692,0.174C82.014,66.021,80.871,69.518,76.736,75.523z   M82.404,68.182c0.888-2.121,1.226-3.703,1.398-4.961c0.012-0.088,0.004-0.174-0.029-0.253c0.791-1.795,2.403-6.874,3.231-11.03  C86.75,57.688,85.173,63.227,82.404,68.182z"/></svg>