<svg xmlns="http://www.w3.org/2000/svg" xmlns:xlink="http://www.w3.org/1999/xlink" version="1.1" x="0px" y="0px" viewBox="0 0 100 125" enable-background="new 0 0 100 100" xml:space="preserve"><g><path fill="none" d="M61.2,45.9c-4.5,0-8.3,6.2-8.3,13.6c0,7.4,3.8,13.6,8.3,13.6s8.3-6.2,8.3-13.6C69.5,52.1,65.7,45.9,61.2,45.9z   "/><polygon fill="none" points="61.6,32.5 43.1,32.6 39.3,36.5 57.6,36.5  "/><path d="M68.5,44.7L78.2,22l-2.6-6.3H53.5c0,0-21.8,17.8-29,32c-0.2,0.4-0.4,0.7-0.5,1.1c0,0.1-0.1,0.2-0.1,0.3l0,0   c-1.3,2.9-2,6.4-2,10.1c0,10.5,5.8,19,13,19c1.1,0,2.4,0,3.8,0c0,0.2-0.1,0.3-0.1,0.5c0,3.1,2.6,5.7,5.7,5.7s5.7-2.6,5.7-5.7   c0-0.2,0-0.3,0-0.5c3.9,0,7.6,0,10.1,0c7.2,0,13-8.5,13-19C73.1,53.3,71.2,48.1,68.5,44.7L68.5,44.7z M44.3,82   c-1.9,0-3.4-1.5-3.4-3.4c0-0.2,0.1-0.3,0.1-0.5c2.1,0,4.3,0,6.5,0c0,0.2,0.1,0.3,0.1,0.5C47.7,80.4,46.2,82,44.3,82z M39.3,36.5   l3.9-3.9l18.5-0.1l-4,4H39.3z M69.5,59.5c0,7.4-3.8,13.6-8.3,13.6s-8.3-6.2-8.3-13.6c0-7.4,3.8-13.6,8.3-13.6S69.5,52.1,69.5,59.5z   "/></g></svg>